<svg width="40" height="40" viewBox="0 0 40 40" fill="none" xmlns="http://www.w3.org/2000/svg">
<circle cx="20" cy="20" r="20" fill="#FFE195"/>
<g clip-path="url(#clip0_1034_11926)">
<path fill-rule="evenodd" clip-rule="evenodd" d="M19.6897 10.5986C14.6484 10.5986 10.5469 14.7592 10.5469 19.8732C10.5469 21.4758 10.9583 23.0451 11.7391 24.44L10.6392 27.2604C10.2205 28.3816 11.303 29.4797 12.4084 29.054L15.1878 27.9374C16.5592 28.7304 18.1108 29.1477 19.6897 29.1477C24.7311 29.1477 28.8326 24.9872 28.8326 19.8732C28.8326 14.7592 24.7311 10.5986 19.6897 10.5986ZM15.3862 19.2175C15.5572 19.0431 15.7903 18.9457 16.0326 18.9457C16.2749 18.9457 16.508 19.0431 16.679 19.2175C16.8509 19.3909 16.9469 19.6274 16.9469 19.8732C16.9469 20.119 16.8509 20.3555 16.679 20.5289C16.508 20.7032 16.2749 20.8006 16.0326 20.8006C15.7903 20.8006 15.5572 20.7032 15.3862 20.5289C15.2143 20.3555 15.1183 20.119 15.1183 19.8732C15.1183 19.6274 15.2143 19.3909 15.3862 19.2175ZM19.0433 19.2175C19.2143 19.0431 19.4474 18.9457 19.6897 18.9457C19.932 18.9457 20.1652 19.0431 20.3361 19.2175C20.508 19.3909 20.604 19.6274 20.604 19.8732C20.604 20.119 20.508 20.3555 20.3361 20.5289C20.1642 20.7023 19.932 20.8006 19.6897 20.8006C19.4474 20.8006 19.2143 20.7032 19.0433 20.5289C18.8724 20.3545 18.7754 20.119 18.7754 19.8732C18.7754 19.6274 18.8714 19.3909 19.0433 19.2175ZM23.3469 18.9457C23.1046 18.9457 22.8714 19.0431 22.7005 19.2175C22.5286 19.3909 22.4326 19.6274 22.4326 19.8732C22.4326 20.119 22.5286 20.3555 22.7005 20.5289C22.8724 20.7023 23.1046 20.8006 23.3469 20.8006C23.5892 20.8006 23.8223 20.7032 23.9933 20.5289C24.1642 20.3545 24.2612 20.119 24.2612 19.8732C24.2612 19.6274 24.1652 19.3909 23.9933 19.2175C23.8223 19.0431 23.5892 18.9457 23.3469 18.9457Z" fill="#D72C0D"/>
</g>
<defs>
<clipPath id="clip0_1034_11926">
<rect width="18.2857" height="18.5491" fill="white" transform="translate(10.5469 10.5986)"/>
</clipPath>
</defs>
</svg>
