<svg width="25" height="25" viewBox="0 0 25 25" fill="none" xmlns="http://www.w3.org/2000/svg">
<g clip-path="url(#clip0_3407_99700)">
<path d="M12.167 2.75C6.78199 2.75 2.41699 7.115 2.41699 12.5C2.41699 14.5144 3.02792 16.3858 4.07446 17.9397L3.16699 22.25L7.88013 21.2576C9.17415 21.8922 10.6284 22.25 12.167 22.25C17.552 22.25 21.917 17.885 21.917 12.5C21.917 7.115 17.552 2.75 12.167 2.75ZM7.66699 11.375C8.28949 11.375 8.79199 11.8775 8.79199 12.5C8.79199 13.1225 8.28949 13.625 7.66699 13.625C7.04449 13.625 6.54199 13.1225 6.54199 12.5C6.54199 11.8775 7.04449 11.375 7.66699 11.375ZM12.167 11.375C12.7895 11.375 13.292 11.8775 13.292 12.5C13.292 13.1225 12.7895 13.625 12.167 13.625C11.5445 13.625 11.042 13.1225 11.042 12.5C11.042 11.8775 11.5445 11.375 12.167 11.375ZM16.667 11.375C17.2895 11.375 17.792 11.8775 17.792 12.5C17.792 13.1225 17.2895 13.625 16.667 13.625C16.0445 13.625 15.542 13.1225 15.542 12.5C15.542 11.8775 16.0445 11.375 16.667 11.375Z" fill="#CFD4DA"/>
</g>
<defs>
<clipPath id="clip0_3407_99700">
<rect width="24" height="24" fill="white" transform="translate(0.166992 0.5)"/>
</clipPath>
</defs>
</svg>

