<svg width="25" height="24" viewBox="0 0 25 24" fill="none" xmlns="http://www.w3.org/2000/svg">
<path fill-rule="evenodd" clip-rule="evenodd" d="M12.167 24C5.53958 24 0.166992 18.6274 0.166992 12C0.166992 5.37258 5.53958 0 12.167 0C18.7944 0 24.167 5.37258 24.167 12C24.167 18.6274 18.7944 24 12.167 24ZM12.5625 18.6763C16.4967 18.6747 19.6965 15.4741 19.6981 11.5408C19.6988 9.63417 18.9573 7.84141 17.6101 6.49271C16.2629 5.14393 14.4713 4.40082 12.5625 4.4C8.6294 4.4 5.42838 7.60085 5.42682 11.5351C5.42628 12.7927 5.75486 14.0203 6.3793 15.1024L5.36699 18.8L9.14967 17.8077C10.1919 18.3762 11.3653 18.6758 12.5596 18.6763H12.5625Z" fill="#CFD4DA"/>
<path fill-rule="evenodd" clip-rule="evenodd" d="M9.32518 16.5162L7.08049 17.105L7.67963 14.9165L7.53862 14.6921C6.94493 13.7478 6.63138 12.6564 6.63184 11.5358C6.63313 8.2658 9.29371 5.60547 12.5651 5.60547C14.1492 5.60602 15.6383 6.2237 16.7581 7.34474C17.8778 8.46579 18.4941 9.95585 18.4935 11.5406C18.4922 14.8108 15.8317 17.4714 12.5628 17.4714H12.5604C11.4961 17.471 10.4523 17.1851 9.54175 16.6447L9.32518 16.5162ZM16.1576 13.2378C16.1131 13.1634 15.9942 13.1188 15.8159 13.0295C15.6377 12.9403 14.7611 12.509 14.5976 12.4495C14.4342 12.39 14.3153 12.3603 14.1965 12.5387C14.0776 12.7172 13.7359 13.1188 13.6319 13.2378C13.5279 13.3568 13.4239 13.3717 13.2457 13.2824C13.0674 13.1932 12.4929 13.0049 11.8119 12.3975C11.2818 11.9247 10.924 11.3409 10.82 11.1624C10.716 10.9839 10.8089 10.8874 10.8982 10.7985C10.9784 10.7186 11.0765 10.5902 11.1656 10.4861C11.2548 10.3821 11.2845 10.3076 11.3439 10.1887C11.4033 10.0697 11.3736 9.9656 11.329 9.87635C11.2845 9.7871 10.9279 8.9095 10.7793 8.5525C10.6346 8.20484 10.4876 8.25194 10.3782 8.24644C10.2743 8.24123 10.1553 8.24013 10.0365 8.24013C9.91761 8.24013 9.72444 8.28475 9.56102 8.46325C9.3976 8.64175 8.93701 9.0731 8.93701 9.95064C8.93701 10.8282 9.57587 11.676 9.66502 11.795C9.75416 11.9141 10.9222 13.7149 12.7108 14.4872C13.1362 14.6709 13.4683 14.7806 13.7272 14.8628C14.1543 14.9985 14.543 14.9793 14.8502 14.9334C15.1928 14.8822 15.9051 14.5021 16.0537 14.0857C16.2022 13.6691 16.2022 13.3122 16.1576 13.2378Z" fill="#CFD4DA"/>
</svg>
