<svg width="40" height="40" viewBox="0 0 40 40" fill="none" xmlns="http://www.w3.org/2000/svg">
<path d="M20 40C31.0457 40 40 31.0457 40 20C40 8.9543 31.0457 0 20 0C8.9543 0 0 8.9543 0 20C0 31.0457 8.9543 40 20 40Z" fill="#25D366"/>
<path fill-rule="evenodd" clip-rule="evenodd" d="M20.6586 31.1268H20.6537C18.6633 31.1261 16.7075 30.6267 14.9705 29.6792L8.66602 31.333L10.3532 25.1704C9.31246 23.3668 8.76483 21.3209 8.76572 19.2249C8.76833 12.6678 14.1034 7.33301 20.6585 7.33301C23.8399 7.33438 26.8259 8.5729 29.0712 10.8209C31.3165 13.0687 32.5524 16.0566 32.5511 19.2343C32.5485 25.7899 27.2156 31.1241 20.6586 31.1268ZM15.2626 27.5262L15.6235 27.7405C17.1412 28.6411 18.8808 29.1176 20.6546 29.1183H20.6586C26.1067 29.1183 30.541 24.684 30.5431 19.2336C30.5442 16.5923 29.517 14.1089 27.6507 12.2405C25.7845 10.3721 23.3027 9.34262 20.6625 9.3417C15.2101 9.3417 10.7758 13.7756 10.7737 19.2256C10.7729 21.0933 11.2955 22.9123 12.285 24.486L12.52 24.86L11.5214 28.5076L15.2626 27.5262ZM26.243 21.7947C26.4503 21.8949 26.5902 21.9625 26.65 22.0623C26.7243 22.1862 26.7243 22.7811 26.4768 23.4754C26.229 24.1695 25.0419 24.803 24.4709 24.8883C23.959 24.9648 23.3111 24.9968 22.5993 24.7705C22.1677 24.6336 21.6142 24.4508 20.9053 24.1446C18.1195 22.9417 16.2369 20.2417 15.8811 19.7314C15.8561 19.6956 15.8387 19.6706 15.829 19.6576L15.8266 19.6544C15.6693 19.4446 14.6156 18.0387 14.6156 16.5837C14.6156 15.2149 15.288 14.4974 15.5975 14.1672C15.6187 14.1446 15.6382 14.1238 15.6556 14.1047C15.928 13.8072 16.25 13.7328 16.448 13.7328C16.6461 13.7328 16.8444 13.7346 17.0176 13.7433C17.0389 13.7444 17.0612 13.7443 17.0841 13.7441C17.2573 13.7431 17.4732 13.7419 17.6862 14.2534C17.7681 14.4503 17.888 14.7422 18.0144 15.05C18.2701 15.6725 18.5526 16.3603 18.6023 16.4598C18.6767 16.6086 18.7262 16.7821 18.6271 16.9805C18.6123 17.0102 18.5985 17.0383 18.5854 17.0651C18.511 17.217 18.4562 17.3287 18.33 17.4762C18.2803 17.5341 18.229 17.5966 18.1777 17.6591C18.0755 17.7836 17.9732 17.9081 17.8842 17.9968C17.7355 18.145 17.5806 18.3057 17.7539 18.6032C17.9273 18.9007 18.5237 19.8738 19.4071 20.6617C20.3567 21.5088 21.182 21.8667 21.6003 22.0482C21.682 22.0836 21.7482 22.1123 21.7967 22.1366C22.0938 22.2854 22.2671 22.2605 22.4405 22.0623C22.6138 21.864 23.1833 21.1946 23.3814 20.8971C23.5795 20.5997 23.7776 20.6493 24.05 20.7484C24.3224 20.8476 25.7834 21.5664 26.0805 21.7152C26.1385 21.7442 26.1927 21.7704 26.243 21.7947Z" fill="#FDFDFD"/>
</svg>
