<svg width="120" height="120" viewBox="0 0 120 120" fill="none" xmlns="http://www.w3.org/2000/svg">
<g clip-path="url(#clip0_2667_77850)">
<rect width="120" height="120" rx="28" fill="#039BE5"/>
<path d="M23.9256 59.3244C30.5614 55.6833 37.9689 52.6445 44.89 49.59C56.797 44.5871 68.7513 39.6709 80.8263 35.0939C83.1757 34.3141 87.3969 33.5514 87.8108 37.0196C87.5842 41.9287 86.6518 46.8091 86.0123 51.6895C84.389 62.422 82.5129 73.1177 80.6834 83.8148C80.0531 87.3779 75.5722 89.2225 72.705 86.9423C65.8147 82.306 58.8713 77.7149 52.0689 72.9712C49.8406 70.7157 51.9069 67.4768 53.897 65.8661C59.5721 60.2949 65.5907 55.5615 70.9692 49.7024C72.42 46.2123 68.1333 49.1537 66.7194 50.0549C58.9501 55.3881 51.3709 61.047 43.1797 65.7342C38.9956 68.0285 34.119 66.0678 29.9368 64.7875C26.1869 63.241 20.692 61.6829 23.9252 59.3247L23.9256 59.3244Z" fill="white"/>
</g>
<defs>
<clipPath id="clip0_2667_77850">
<rect width="120" height="120" fill="white"/>
</clipPath>
</defs>
</svg>
