<svg width="60" height="60" viewBox="0 0 60 60" fill="none" xmlns="http://www.w3.org/2000/svg">
<path d="M0 30C0 13.4315 13.4315 0 30 0C46.5685 0 60 13.4315 60 30C60 46.5685 46.5685 60 30 60C13.4315 60 0 46.5685 0 30Z" fill="#E4E5E7"/>
<path fill-rule="evenodd" clip-rule="evenodd" d="M30 30.2321C34.9706 30.2321 39 26.2026 39 21.2321C39 16.2615 34.9706 12.2321 30 12.2321C25.0295 12.2321 21 16.2615 21 21.2321C21 26.2026 25.0295 30.2321 30 30.2321ZM30 54.2321C37.5624 54.2321 44.3194 50.7157 48.7217 45.2323C44.3194 39.7486 37.5622 36.2321 29.9997 36.2321C22.4373 36.2321 15.6803 39.7484 11.278 45.2318C15.6803 50.7155 22.4375 54.2321 30 54.2321Z" fill="#8C9196"/>
</svg>
