<svg width="25" height="25" viewBox="0 0 25 25" fill="none" xmlns="http://www.w3.org/2000/svg">
<path d="M5.20833 12.5H3.125L12.5 3.125L21.875 12.5H19.7917" fill="#475569"/>
<path d="M5.20833 12.5H3.125L12.5 3.125L21.875 12.5H19.7917" stroke="#94A3B8" stroke-width="2" stroke-linecap="round" stroke-linejoin="round"/>
<path d="M5.2085 12.5V19.7917C5.2085 20.3442 5.42799 20.8741 5.81869 21.2648C6.20939 21.6555 6.7393 21.875 7.29183 21.875H17.7085C18.261 21.875 18.7909 21.6555 19.1816 21.2648C19.5723 20.8741 19.7918 20.3442 19.7918 19.7917V12.5" fill="#475569"/>
<path d="M5.2085 12.5V19.7917C5.2085 20.3442 5.42799 20.8741 5.81869 21.2648C6.20939 21.6555 6.7393 21.875 7.29183 21.875H17.7085C18.261 21.875 18.7909 21.6555 19.1816 21.2648C19.5723 20.8741 19.7918 20.3442 19.7918 19.7917V12.5" stroke="#94A3B8" stroke-width="2" stroke-linecap="round" stroke-linejoin="round"/>
<path d="M9.375 21.8753V15.6253C9.375 15.0728 9.59449 14.5429 9.98519 14.1522C10.3759 13.7615 10.9058 13.542 11.4583 13.542H13.5417C14.0942 13.542 14.6241 13.7615 15.0148 14.1522C15.4055 14.5429 15.625 15.0728 15.625 15.6253V21.8753" fill="#475569"/>
<path d="M9.375 21.8753V15.6253C9.375 15.0728 9.59449 14.5429 9.98519 14.1522C10.3759 13.7615 10.9058 13.542 11.4583 13.542H13.5417C14.0942 13.542 14.6241 13.7615 15.0148 14.1522C15.4055 14.5429 15.625 15.0728 15.625 15.6253V21.8753" stroke="#94A3B8" stroke-width="2" stroke-linecap="round" stroke-linejoin="round"/>
</svg>
